<svg xmlns="http://www.w3.org/2000/svg" xmlns:xlink="http://www.w3.org/1999/xlink" width="512" height="1142" viewBox="0 0 512 1142"><svg viewBox="0 0 30.556 30.556" width="30.556" height="30.556" id="001-scissors" y="0"><path d="M26.311 23.224c-.812-1.416-2.072-2.375-3.402-2.736-1.051-.287-2.141-.199-3.084.334l-2.805-4.904c1.736-3.463 5.633-11.227 6.332-12.451C24.258 1.884 22.637 0 22.637 0l-7.36 12.872L7.919 0s-1.62 1.884-.715 3.466c.7 1.225 4.598 8.988 6.332 12.451l-2.804 4.904c-.943-.533-2.035-.621-3.084-.334-1.332.361-2.591 1.32-3.403 2.736-1.458 2.547-.901 5.602 1.239 6.827.949.545 2.048.632 3.107.345 1.329-.363 2.591-1.322 3.402-2.735a6.17 6.17 0 0 0 .71-1.926v.001c.001-.005.001-.01.006-.015.007-.054.017-.108.022-.167.602-4.039 1.74-6.102 2.545-7.104.807 1.002 1.946 3.064 2.547 7.104.006.059.016.113.021.167.004.005.004.01.006.015v-.001c.121.648.355 1.302.709 1.926.812 1.413 2.074 2.372 3.404 2.735 1.059.287 2.158.2 3.109-.345 2.141-1.225 2.696-4.279 1.239-6.826zm-16.4 3.244c-.46.803-1.189 1.408-1.948 1.615-.338.092-.834.148-1.289-.113-.97-.555-1.129-2.186-.346-3.556.468-.812 1.177-1.403 1.95-1.614.335-.091.831-.146 1.288.113.971.557 1.129 2.184.345 3.555zm13.97 1.502c-.455.262-.949.205-1.287.113-.76-.207-1.488-.812-1.949-1.615-.783-1.371-.625-2.998.346-3.555.457-.26.953-.204 1.289-.113.771.211 1.482.802 1.947 1.614.783 1.37.625 3.001-.346 3.556z"></path></svg><svg viewBox="0 0 149.566 149.566" width="149.566" height="149.566" id="002-vladimir-putin" y="31"><path d="M98.245 149.566c-24.895-14.602-51.526-22.041-80.407-19.83-.277-.782.084-1.149.253-1.536 3.047-6.992 6.11-13.976 9.179-20.958.242-.551.349-1.1.343-1.703-.023-2.278.009-4.557-.021-6.835-.008-.593.091-.951.777-.949.33.001.659-.13.991-.178 2.826-.408 2.802-.408 3.052-3.316.169-1.971.324-3.952.66-5.898.234-1.354.09-2.381-1.24-3.017-.888-.425-.955-.962-.167-1.563.723-.552.464-.951-.188-1.275-1.144-.569-1.266-1.267-.32-2.145.581-.539.513-1.025-.076-1.552-.427-.382-.919-.734-1.189-1.342l2.506-1.125c-2.626-1.726-3.059-4.515-4.024-7.043-3.787-9.93-5.644-20.166-4.517-30.78 1.113-10.479 4.822-19.883 12.458-27.43 5.203-5.143 11.51-8.371 18.651-9.624C66.599-.574 78.25-.67 89.781 2.365c5.277 1.389 10.045 3.783 14.111 7.462 1.123 1.016 2.477 1.934 2.308 3.798-.023.256.448.577.721.835 2.882 2.726 5.666 5.536 7.873 8.862 1.658 2.497 2.672 5.305 3.854 8.027.976 2.248 2.113 4.355 3.707 6.253 1.332 1.586 1.534 3.694 1.958 5.655.301 1.395.424 2.827.669 4.235.294 1.69-.05 3.211-1.257 4.434-1.897 1.924-2.041 4.08-1.148 6.501 1.749 4.74 4.232 9.05 7.489 12.901 1.558 1.842 2.006 3.898 1.643 6.225-.249 1.593-1.272 2.634-2.459 3.524-1.841 1.38-3.907 2.293-6.207 2.588-.7.09-1.012.25-.91 1.097.243 2.01-.007 4.032-.098 6.047-.011.242-.131.481-.21.719-.245.73-1.348.86-1.392 1.434-.04.535.624 1.119.648 1.834.033.992-.44 1.698-1.208 2.219-.624.423-1.331.664-2.073.856-1.311.34-1.591.997-1.144 2.24.6 1.669 1.074 3.381.923 5.17-.343 4.059-2.68 6.664-7.364 7.565-4.598.884-7.899 3.56-10.842 6.887-1.566 1.77-2.768 3.801-3.791 5.93-1.095 2.279-1.187 4.58-.214 6.947.974 2.37 1.638 4.834 2.21 7.337.318 1.393.065 2.7-.152 4-.212 1.27-.068 2.388.43 3.537.262.599.521 1.234.389 2.082zM90.947 8.745l-.283-.19c.765-1.041 2.029-1.45 2.967-2.307-2.702.331-5.104 1.42-7.431 2.742 1.159-1.507 2.799-2.3 4.499-3.304-2.674.006-5.373 1.176-7.42 3.17-3.584 3.492-5.745 7.833-7.31 12.498-1.888 5.63-2.407 11.427-1.826 17.551-.399-.637-.396-1.135-.445-1.622a41.486 41.486 0 0 1 .507-11.944c1.121-5.937 3.303-11.423 7.117-16.186 1.137-1.42 2.601-2.478 3.975-3.673-1.573.347-2.975.994-4.225 2-2.746 2.21-4.432 5.123-5.619 8.37-3.886 10.633-4.619 21.548-3.008 32.698.307 2.124 1.28 3.516 3.151 4.471 2.34 1.194 4.141 3.025 5.562 5.212.425.654.938.986 1.682 1.146 2.125.456 4.308.78 6.181 1.993 1.115.722 2.306 1.08 3.612 1.301 6.172 1.044 8.929 4.181 9.036 10.173.006.339.225.929-.268.97-.583.048-.317-.56-.327-.867-.15-4.86-2.539-7.255-7.617-7.461 1.842 2.578 1.739 5.47 1.4 8.304-.588 4.918-2.174 9.562-4.454 13.957-.256.493-.318.926-.188 1.435.845 3.303 1.969 6.503 3.573 9.517.732 1.375 1.52 2.738 2.714 3.774 1.222 1.06 1.861.829 2.265-.729.371-1.432.8-1.558 1.915-.513 1.075 1.007 2.066 2.11 3.188 3.06 2.542 2.152 5.193 4.159 8.527 4.942 2.001.47 3.006-.069 3.586-2.079.797-2.765.09-5.427-1.423-7.688-1.235-1.845-1.947-3.761-2.453-6.137 1.617 1.718 3.352 2.769 5.35 3.381.496.152.969.223 1.452-.075.734-.451 1.458-.89 1.373-1.917-.083-.992-1.219-2.192-2.288-2.419-1.519-.323-3.029-.696-4.559-.954-2.121-.357-4.297-.824-5.92 1.254-.13.166-.325.275-.55.117 1.596-3.154 3.528-4.27 6.571-3.648 1.517.31 3.014.264 4.525.119 1.065-.102 2.601.127 3.063-.465.518-.664.016-2.088.039-3.179.045-2.097-1.079-3.367-2.872-4.159-.923-.408-1.859-.779-2.689-1.365-2.445-1.726-2.81-4.689-.978-7.893 1.146-2.003 3.597-2.475 6.222-1.199l-.18.262c-3.74-1.109-5.75.118-5.73 3.501.013 2.369 1.297 3.434 3.659 3.077 1.123-.17 2.253-.343 3.385-.397 1.467-.069 2.961-.151 4.361.443 1.51.64 1.658 1.769.383 2.734-.34.257-.702.484-1.055.725 1.987-.494 3.774-1.374 4.506-3.369.674-1.838.273-3.676-.987-5.203-3.612-4.379-6.537-9.138-8.28-14.573-.692-2.158-.765-4.346.843-6.067 1.717-1.837 2.084-3.829 1.553-6.145-.112-.49-.139-1.001-.261-1.489-.493-1.981-.517-4.177-1.852-5.812-1.699-2.081-2.956-4.362-4.006-6.808-1.453-3.386-2.784-6.83-5.17-9.744-3.818-4.664-8.33-8.558-13.062-12.242-1.513-1.178-2.923-1.969-4.71-.633-.105.079-.321.01-.702.01l2.283-1.724c-2.024-.443-3.406.589-4.877 1.272zm4.991 134.488c.311-.947.413-1.796.245-2.625-.738-3.632-1.837-7.156-3.592-10.429-3.875-7.224-9.245-12.881-16.717-16.58-9.998-4.95-19.99-9.885-30.715-13.091-4.658-1.393-9.343-2.824-14.343-1.683-1.655.378-1.691.223-1.691 1.964 0 1.097.034 2.195-.013 3.29-.028.656.191.912.841 1.121 14.571 4.692 28.622 10.607 41.932 18.191 9.1 5.187 17.804 10.91 24.053 19.842zm-6.407-44.969c-1.22-5.139-1.561-9.401-.878-12.63.75-3.552 1.172-7.135 1.098-10.767-.059-2.923-.442-5.789-1.921-8.383-1.525-2.675-3.815-4.051-6.942-3.955-.989.03-1.482.444-1.685 1.467-.347 1.748.016 3.44.188 5.146.3 2.968 1.087 5.875 1.159 8.873.008.347.157.82-.278 1.018-.442.202-.672-.233-.938-.472-1.981-1.776-3.642-3.856-5.466-5.782-1.444-1.525-2.847-3.103-4.699-4.164-.893-.512-1.826-.883-2.865-.383-.393.189-.525.352-.275.853 1.269 2.547 1.046 3.834-.916 5.875-.263.274-.56.485-.49.946.468 3.06 1.219 5.994 3.263 8.459 2.175 2.623 5.151 4 8.153 5.312 4.946 2.162 9.81 4.419 13.492 8.587zm6.117 24.028c1.898-2.995 3.985-5.561 6.71-7.54.578-.419.15-.731-.066-1.009-4.529-5.821-9.802-10.607-17.277-12.288-2.131-.479-4.236-1.095-6.735-1.405l17.368 22.242zm-37.25-64.948c1.096-.097 1.531-.812 1.988-1.414 1.206-1.588 1.933-3.428 2.59-5.29.185-.524.186-1.074 1.042-.815.423.128.589-.322.584-.762-.01-.762-.409-1.356-.791-1.955-1.075-1.683-2.854-2.589-4.294-3.869-1.16-1.032-2.562-1.613-4.01-2.045-2.571-.767-3.994-.258-5.576 1.925-2.235 3.083-3.207 6.623-2.994 10.341.323 5.646 2.184 10.858 5.615 15.388 2.919 3.853 6.807 5.467 11.663 4.444 1.023-.216 1.429-.759 1.39-1.75-.058-1.482-.71-2.326-2.277-2.235-2.313.135-4.418-1.021-6.708-.847-.228.017-.494-.11-.703-.236-3.366-2.015-5.956-4.673-6.788-8.649-.577-2.758-.261-5.535.143-8.292.257-1.752.667-3.462 1.619-4.99 1.219-1.957 2.793-2.415 4.834-1.372 1.241.634 2.272 1.588 3.431 2.345 1.262.824 1.561 1.938 1.432 3.356-.215 2.349-1.116 4.457-2.19 6.722zM44.203 88.216c2.307 1.208 4.554 1.237 6.622 1.961-3.327.607-6.628 1.283-9.996 1.615 2.77.853 5.65.846 8.453 1.448-4.178.471-8.336 1.004-12.546 1.276a7.2 7.2 0 0 0 1.983.528c4.049.504 8.101.977 12.148 1.493.747.095 1.113.002 1.176-.882.071-.999-.407-2.528 1.608-2.156-.212-.807-.354-1.508-.586-2.178-.212-.609-.162-.896.567-.713.728.183.645-.299.543-.717-.23-.952-.496-1.896-.794-3.016 1.415.431 1.462-.137 1.032-1.065-.158-.342-.333-.691-.402-1.056-.107-.566-.441-.625-.915-.561-2.573.347-5.085 1.083-7.924 1.049 2.103 1.297 4.438 1.077 6.543 2.137-2.517.316-4.779.979-7.512.837zM65.579 61.33c.058-3.142-1.034-4.335-3.358-4.31-.957.01-1.114.406-1.009 1.241.259 2.059.867 4.007 1.717 5.889.118.261.326.54.105.821-.261.331-.571.033-.789-.064-.571-.254-1.197-.504-1.628-.931-1.565-1.553-3.386-2.296-5.606-2.424-1.55-.089-2.116-1.141-1.759-2.723a11.874 11.874 0 0 1 2.232-4.749c.198-.254.627-.476.451-.838-.449-.922-1.373-1.186-2.273-1.407-.689-.169-1.188.099-1.535.766-.727 1.392-1.24 2.858-1.459 4.399-.535 3.762.35 5.154 3.961 6.239 2.055.617 3.89 1.523 5.298 3.214.991 1.19 1.698 1.243 2.881.225 1.773-1.525 2.789-3.446 2.771-5.348zM81.41 4.658c-1.627.549-3.564 1.299-4.789 2.932-2.1 2.799-3.592 5.94-4.479 9.362-1.214 4.687-1.993 9.451-2.651 14.237-.78 5.672-1.318 11.369-1.494 17.095-.013.418.016.81.254 1.207.755 1.258 1.414 2.574 2.192 3.816.322.515.53 1.545 1.334 1.198.636-.275.203-1.181.068-1.741-2.38-9.877-2.296-19.777-.132-29.651 1.254-5.722 2.903-11.324 7.252-15.654.919-.914 1.712-1.954 2.445-2.801zm11.801 123.185c.275-1.358.798-2.545 1.448-3.668.36-.622.24-.993-.262-1.494-3.906-3.894-7.829-7.768-11.988-11.393-1.423-1.241-2.863-2.473-4.514-3.42-.255-.147-.566-.331-.805-.12-.274.242-.031.54.108.793.302.551.6 1.105.913 1.65 1.851 3.22 4.493 5.701 7.279 8.107 3.127 2.701 5.619 5.987 7.821 9.545zM66.786 42.539c.582-7.237 1.467-14.409 2.841-21.521 1.022-5.289 2.688-10.301 5.919-14.69.477-.647.992-1.266 1.489-1.898a5.155 5.155 0 0 0-1.909.964c-1.744 1.379-3.516 2.699-4.223 5.007-1.886 6.152-3.194 12.428-4.299 18.759-.779 4.474-.904 8.913.182 13.379zM48.922 7.902c-.696-.152-1.031.248-1.403.545-3.605 2.878-6.845 6.122-9.575 9.843-5.202 7.091-8.369 14.828-7.299 23.844a26.43 26.43 0 0 0 2.67 8.892c.314-.628.055-1.078-.101-1.548-2.526-7.643-2.09-15.131 1.144-22.487 3.017-6.864 7.681-12.503 13.031-17.639.506-.488 1.021-.967 1.533-1.45zm10.244 28.729c1.551-.745 2.384-1.542 2.561-2.485.379-2.023.766-4.047 1.062-6.084.968-6.658 2.256-13.242 4.358-19.648.317-.965.812-1.876.979-2.996-1.784 1.641-2.643 3.012-3.313 5.203-2.586 8.449-3.143 17.331-5.647 26.01zm-13.328.678c-2.532-14.951 4.8-25.186 15.948-33.612C49.839 9.665 41.01 23.549 45.838 37.309zM71.229 5.327c-1.31.962-2.787 3.355-3.378 5.19-2.863 8.891-3.135 18.292-5.485 27.36 1.392-.876 1.861-1.511 1.959-2.484a135.477 135.477 0 0 1 3.431-19.456c.895-3.56 1.98-7.061 3.473-10.61zM52.968 36.748c3.979-8.456 4.898-17.856 8.457-26.424-4.488 8.282-7.664 16.983-8.457 26.424zm10.664-26.622c-3.815 8.096-5.159 16.975-8.232 25.457 2.282-1.368 3.52-3.118 3.905-5.681.636-4.232 1.444-8.446 2.495-12.604.604-2.392 1.22-4.781 1.832-7.172zM54.03 23.247a72.532 72.532 0 0 1 5.431-13.234c-3.707 3.643-5.095 8.234-5.431 13.234zm56.943 66.911c.196.05.39.117.589.147 2.768.416 5.601.492 8.229 1.638.495.216.883-.182 1.17-.542.304-.381.325-.796.133-1.292-.231-.598-.652-.401-1.042-.393a6.127 6.127 0 0 0-1.005.079c-1.96.369-3.91.447-5.879.014-.709-.156-1.466-.2-2.195.349zm1.155 20.263c-3.109.457-5.735-.632-8.702-1.32 2.734 2.252 5.264 3.994 8.702 1.32zM80.226 58.312c-1.602-2.442-3.753-4.017-6.296-5.337 1.151 2.238 4.01 4.655 6.296 5.337z"></path><path d="M115.513 45.42c.132.196.18.303.259.377.538.505.074 1.957 1.515 1.608 1.555-.377 3.366-.318 3.969-2.323.023-.077.068-.148.104-.221.503.774.646 1.287.543 2.142-.245 2.042-1.026 3.936-2.65 5.133-1.432 1.055-1.383 2.31-1.299 3.716.073 1.215.193 2.428.302 3.746-1.229-.744-1.429-2.041-1.977-3.117-.259-.51-.173-1.444-.983-1.361-.927.095-.856.954-.844 1.685.02 1.294.006 2.589-.161 3.91-.335-1.361-.709-2.714-.989-4.086-.122-.596-.324-.835-.963-.806-1.961.089-3.645-.647-4.974-2.042-.694-.728-1.316-.844-2.219-.286 1.492 1.577 2.99 3.141 4.991 3.985.924.389 1.294.763.965 1.782-1.662-.084-2.943-1.01-4.158-2.006-1.041-.853-1.999-1.808-2.99-2.723-.43-.397-.79-.904-1.43-.977-.481-.055-.449-.384-.482-.73-.043-.447.179-.548.565-.632 1.764-.381 3.525-.774 5.276-1.209 1.425-.354 2.817-.818 4.143-1.465 1.727-.845 3.164-1.935 3.487-4.1zm-7.996 7.603c1.175 1.147 2.311 1.965 3.757 2.261.428.087.695-.024.776-.536.096-.609-.299-.457-.602-.467-.833-.029-1.564-.317-1.62-1.224-.054-.881-.412-.806-.995-.547-.373.165-.76.298-1.316.513zM101.221 82.998c-.326 1.212-.913 2.359-1.072 3.615-.196 1.546-.286 3.085.068 4.628.39 1.695 1.268 2.796 3.146 2.836.276.006.548.173.978.318-.784.432-1.49.756-2.123 1.185-.776.527-1.303 1.281-1.725 2.128-.219.44-.581.934-1.155.809-.517-.113-.561-.665-.63-1.126-.476-3.214.052-6.359.646-9.5.303-1.602.613-3.202 1.393-4.662.08-.145.107-.321.474-.231zM96.161 47.875c3.457-.185 6.807.481 10.261-.292-.637 1.019-1.634 1.13-2.489 1.318-1.508.332-3.06.443-4.601.604-1.379.145-2.327-.313-3.171-1.63zM97.666 36.649c-3.125-1.766-6.021-1.126-8.898-.222-1.757.552-3.443 1.295-5.116 2.068-.38.176-.76.585-1.273.278 6.677-4.445 13.178-5.09 15.287-2.124z"></path><path d="M99.286 50.444c2.96-.498 5.954-.722 9.02-1.823-1.14 1.608-2.666 2.066-4.161 2.545-.633.203-1.325.222-1.962.418-1.23.378-2.211.181-2.897-1.14zM76.77 41.716c-2.3-2.08-1.738-11.03-.019-15.878-.173 1.705-.394 3.406-.507 5.114-.119 1.806-.317 3.606-.292 5.425.025 1.763.117 3.504.818 5.339zM102.969 38.748c-3.588-3.092-6.625-6.375-10.616-8.387 2.082-.369 9.01 4.937 10.616 8.387zM79.643 26.687c.16 4.01-.496 8.03-.037 12.052-1.466-4.002-.77-8.021.037-12.052zM111.105 61.399c-1.184 1.466-1.739 1.589-3.787.923.697-.399 2.389-.819 3.787-.923zM120.849 70.926c.541.112 1.008.367 1.5.764-.706.126-1.143-.361-1.68-.502l.18-.262zM90.947 8.745c-.167.241-.45.601-.656.396-.252-.25.175-.423.373-.586l.283.19z"></path></svg><svg viewBox="0 0 512 512" width="512" height="512" id="003-soldier" y="181"><path d="M148.204 202.609l1.379 23.581a12.98 12.98 0 0 0 17.038 11.562l12.621-4.183-31.038-30.96zM511.983 153.352c-.304-5.214-4.628-9.238-9.784-9.238-.193 0-.387.006-.582.017l-14.706.86-.501-8.569a9.811 9.811 0 0 0-19.587 1.145l.501 8.569-79.533 4.652-19.782-35.024a10.402 10.402 0 0 0-9.365-5.218l-79.706 2.543a10.424 10.424 0 0 0-9.829 8.094l-5.615 24.55 21.907-1.093 2.237-10.971 65.423-2.087 11.491 20.567-14.716.861c13.8 20.885 5.559 48.911-16.953 59.171l-6.104 2.782 10.304 30.286c3.954 11.623 16.581 17.832 28.194 13.879 11.618-3.953 17.832-16.575 13.879-28.194l-13.659-40.147 37.381-2.186c5.409-.317 9.536-4.957 9.221-10.366-.247-4.218-3.128-7.647-6.949-8.806l97.611-5.708c5.411-.319 9.538-4.959 9.222-10.369zM206.773 53.045c-26.768-4.088-51.798 14.296-55.888 41.077-4.526 29.623 18.376 56.458 48.543 56.458 23.815 0 44.716-17.381 48.423-41.647 4.09-26.776-14.302-51.799-41.078-55.888z"></path><path d="M336.32 166.143c-5.09-11.167-18.271-16.092-29.436-11.004l-81.045 36.939c-8.178-4.584-66.046-37.059-74.61-41.822-11.75-6.535-16.266-19.697-16.266-19.697a37.213 37.213 0 0 0-37.478 37.311c.528 61.581.432 111.869.351 133.039a68.8 68.8 0 0 0 3.043 20.491c4.407 14.247 13.026 43.684 22.571 84.787H26.665C11.938 406.19 0 418.128 0 432.855c0 14.727 11.938 26.665 26.665 26.665h130.432a26.666 26.666 0 0 0 25.961-32.755l-22.422-95.568 73.378-7.277-16.648 104.75c-2.567 16.15 9.895 30.854 26.367 30.854 12.883 0 24.216-9.358 26.302-22.483l22.072-138.882a26.665 26.665 0 0 0-28.965-30.721l-57.92 5.744.148-13.942c-2.717-2.2-2.532-2.137-15.431-15.003l-19.073 6.32a26.442 26.442 0 0 1-23.185-3.223c-6.761-4.588-11.083-12.198-11.56-20.356-1.913-32.717-2.021-31.378-1.465-35.068l79.287 44.443a22.214 22.214 0 0 0 20.079.838l91.297-41.612c11.165-5.091 16.091-18.269 11.001-29.436z"></path></svg><svg viewBox="0 0 448.978 448.978" width="448.978" height="448.978" id="004-kraken" y="693"><path d="M260.062 133.848c7.21 0 13.08 5.86 13.08 13.07s-5.87 13.07-13.08 13.07-13.07-5.86-13.07-13.07 5.86-13.07 13.07-13.07zM188.912 133.848c7.21 0 13.08 5.86 13.08 13.07s-5.87 13.07-13.08 13.07-13.07-5.86-13.07-13.07 5.86-13.07 13.07-13.07z" fill="#e5d665"></path><path d="M299.072 58.558c-.43.27-.85.54-1.26.81-3.54 2.29-5.88 3.8-11.41 3.8s-7.87-1.51-11.42-3.8c-4.27-2.77-9.59-6.2-19.55-6.2-9.95 0-15.27 3.44-19.55 6.2-3.54 2.29-5.88 3.8-11.41 3.8-5.52 0-7.86-1.51-11.4-3.8-4.28-2.76-9.6-6.2-19.55-6.2-9.96 0-15.28 3.43-19.55 6.2-3.55 2.29-5.89 3.8-11.42 3.8s-7.87-1.51-11.41-3.8c-.4-.26-.82-.53-1.24-.8 15.06-25.54 42.85-42.71 74.59-42.71 31.73 0 59.52 17.17 74.58 42.7zM351.752 266.568v23.38c0 11.88-4.7 23-13.22 31.33-8.53 8.32-19.78 12.76-31.65 12.47-23.57-.56-42.75-20.64-42.75-44.76v-71.32c0-4.14-3.35-7.5-7.5-7.5-4.14 0-7.5 3.36-7.5 7.5v171.09c0 14.55 11.13 26.49 25.33 27.18 7.38.36 14.37-2.24 19.71-7.32 5.26-5.02 8.28-12.05 8.28-19.31v-10.59c0-4.94 3.77-9.02 8.42-9.1 2.34-.03 4.51.82 6.16 2.45a8.467 8.467 0 0 1 2.57 6.11v10.17c0 24.12-19.18 44.2-42.75 44.76-11.89.28-23.13-4.15-31.64-12.47-8.53-8.32-13.22-19.45-13.22-31.33v-162.3c0-4.14-3.36-7.5-7.5-7.5-4.15 0-7.5 3.36-7.5 7.5v161.37c-.02 24.1-19.19 44.16-42.75 44.72-11.88.27-23.13-4.14-31.65-12.46-8.52-8.33-13.22-19.45-13.22-31.33v-10.6c0-4.93 3.77-9.02 8.41-9.1 2.32-.03 4.52.83 6.18 2.46a8.492 8.492 0 0 1 2.56 6.1v10.59c0 14.54 11.13 26.48 25.33 27.17 7.37.37 14.37-2.24 19.71-7.32 5.26-5.01 8.28-12.05 8.28-19.3v-171.64c0-4.14-3.36-7.5-7.5-7.5s-7.5 3.36-7.5 7.5v72.28c0 11.88-4.7 23-13.22 31.33-8.52 8.32-19.76 12.77-31.65 12.47-23.57-.56-42.74-20.64-42.74-44.76v-22.95c0-2.32.91-4.5 2.57-6.12a8.51 8.51 0 0 1 6.17-2.46c4.63.09 8.4 4.18 8.4 9.11v23.38c0 7.26 3.02 14.29 8.28 19.3 5.34 5.09 12.33 7.68 19.7 7.33 14.21-.69 25.34-12.63 25.34-27.18v-60.89c0-24.06-5.4-47.78-16.06-70.5-8.82-18.81-13.68-38.56-13.68-55.61 0-10.62 1.92-20.78 5.44-30.19 4.21 2.72 9.5 5.96 19.16 5.96 9.96 0 15.28-3.44 19.55-6.2 3.55-2.29 5.89-3.8 11.42-3.8 5.52 0 7.86 1.51 11.41 3.8 4.27 2.76 9.59 6.2 19.54 6.2 9.96 0 15.28-3.44 19.55-6.2 3.55-2.29 5.89-3.8 11.41-3.8 5.53 0 7.87 1.51 11.42 3.8 4.27 2.76 9.59 6.2 19.55 6.2 9.67 0 14.97-3.25 19.18-5.97 3.52 9.41 5.44 19.58 5.44 30.2 0 17.05-4.85 36.8-13.68 55.61-10.65 22.72-16.06 46.44-16.06 70.5v61.44c0 7.26 3.02 14.29 8.28 19.3 5.33 5.09 12.33 7.68 19.7 7.33 14.21-.69 25.34-12.63 25.34-27.18v-23.36c0-2.32.91-4.5 2.57-6.12 1.66-1.63 3.84-2.51 6.17-2.46 4.64.09 8.41 4.18 8.41 9.11zm-63.61-119.65c0-15.48-12.6-28.07-28.08-28.07-15.48 0-28.07 12.59-28.07 28.07s12.59 28.07 28.07 28.07 28.08-12.59 28.08-28.07zm-71.15 0c0-15.48-12.6-28.07-28.08-28.07s-28.07 12.59-28.07 28.07 12.59 28.07 28.07 28.07 28.08-12.59 28.08-28.07z" fill="#77ce6f"></path><path d="M441.232 53.168c4.14 0 7.5 3.36 7.5 7.5s-3.36 7.5-7.5 7.5c-5.53 0-7.88 1.51-11.42 3.8-4.28 2.76-9.6 6.2-19.55 6.2-9.96 0-15.28-3.44-19.56-6.2-3.54-2.29-5.88-3.8-11.41-3.8s-7.87 1.51-11.41 3.8c-4.28 2.76-9.6 6.2-19.55 6.2-9.96 0-15.28-3.44-19.56-6.2-2.88-1.87-4.97-3.22-8.64-3.65 3.81 10.66 5.89 22.13 5.89 34.08 0 19.21-5.36 41.22-15.09 61.98-9.72 20.71-14.65 42.29-14.65 64.13v61.44c0 3.22 1.29 6.22 3.63 8.44 2.33 2.23 5.39 3.37 8.62 3.21 6.1-.3 11.07-5.77 11.07-12.2v-23.36c0-6.38 2.51-12.36 7.06-16.83 4.56-4.47 10.59-6.86 16.97-6.74 12.74.24 23.12 11.05 23.12 24.1v23.38c0 15.95-6.3 30.89-17.74 42.06-11.1 10.83-25.62 16.75-41.05 16.75-.48 0-.96-.01-1.44-.02-16.77-.4-31.88-8.11-42.39-20.08v60.1c0 6.43 4.96 11.9 11.06 12.2 3.22.15 6.3-.98 8.64-3.21 2.33-2.22 3.62-5.22 3.62-8.44v-10.59c0-13.07 10.39-23.88 23.15-24.1 6.35-.1 12.39 2.28 16.94 6.74 4.55 4.47 7.06 10.44 7.06 16.82v10.17c0 32.19-25.75 59-57.39 59.76-.48.01-.96.01-1.43.01-15.43 0-29.96-5.91-41.05-16.75-4.2-4.09-7.7-8.7-10.45-13.67-9.94 17.68-28.48 29.89-49.69 30.4-.47.01-.95.02-1.43.02-15.43 0-29.96-5.92-41.05-16.75-11.44-11.17-17.74-26.11-17.74-42.06v-10.6c0-13.06 10.38-23.87 23.14-24.1 6.39-.09 12.4 2.28 16.95 6.75s7.06 10.44 7.06 16.81v10.59c0 6.42 4.96 11.89 11.06 12.19 3.23.16 6.3-.98 8.63-3.2 2.34-2.23 3.63-5.23 3.63-8.44v-60.18c-.88.98-1.79 1.95-2.74 2.88-11.44 11.17-26.52 17.11-42.48 16.73-31.65-.75-57.39-27.55-57.39-59.75v-22.95c0-6.38 2.51-12.36 7.06-16.83 4.56-4.47 10.58-6.87 16.96-6.74 12.75.24 23.12 11.05 23.12 24.1v23.38c0 3.22 1.29 6.22 3.63 8.44 2.33 2.23 5.4 3.37 8.62 3.21 6.11-.3 11.07-5.77 11.07-12.2v-60.89c0-21.84-4.92-43.42-14.64-64.13-9.74-20.76-15.1-42.77-15.1-61.98 0-11.95 2.08-23.43 5.89-34.08-3.68.43-5.77 1.78-8.66 3.65-4.28 2.76-9.6 6.2-19.55 6.2s-15.27-3.44-19.55-6.2c-3.54-2.29-5.88-3.8-11.41-3.8s-7.87 1.51-11.41 3.8c-4.28 2.76-9.6 6.2-19.55 6.2s-15.28-3.44-19.55-6.2c-3.54-2.29-5.88-3.8-11.41-3.8-4.14 0-7.5-3.36-7.5-7.5s3.36-7.5 7.5-7.5c9.95 0 15.27 3.44 19.55 6.2 3.54 2.29 5.88 3.8 11.41 3.8s7.87-1.51 11.41-3.8c4.28-2.76 9.6-6.2 19.55-6.2s15.27 3.44 19.55 6.2c3.54 2.29 5.88 3.8 11.41 3.8s7.87-1.51 11.41-3.8c4.28-2.76 9.6-6.2 19.55-6.2 1.43 0 2.75.08 4 .2 17.33-31.28 50.68-52.51 88.9-52.51s71.57 21.23 88.89 52.51c1.24-.13 2.56-.2 3.98-.2 9.95 0 15.28 3.43 19.55 6.2 3.55 2.29 5.89 3.8 11.42 3.8 5.52 0 7.87-1.51 11.41-3.8 4.27-2.77 9.6-6.2 19.55-6.2 9.95 0 15.28 3.43 19.55 6.2 3.55 2.29 5.89 3.8 11.42 3.8s7.87-1.51 11.41-3.8c4.28-2.77 9.6-6.2 19.56-6.2zm-89.48 236.78v-23.38c0-4.93-3.77-9.02-8.41-9.11-2.33-.05-4.51.83-6.17 2.46a8.49 8.49 0 0 0-2.57 6.12v23.36c0 14.55-11.13 26.49-25.34 27.18-7.37.35-14.37-2.24-19.7-7.33-5.26-5.01-8.28-12.04-8.28-19.3v-61.44c0-24.06 5.41-47.78 16.06-70.5 8.83-18.81 13.68-38.56 13.68-55.61 0-10.62-1.92-20.79-5.44-30.2-4.21 2.72-9.51 5.97-19.18 5.97-9.96 0-15.28-3.44-19.55-6.2-3.55-2.29-5.89-3.8-11.42-3.8-5.52 0-7.86 1.51-11.41 3.8-4.27 2.76-9.59 6.2-19.55 6.2-9.95 0-15.27-3.44-19.54-6.2-3.55-2.29-5.89-3.8-11.41-3.8-5.53 0-7.87 1.51-11.42 3.8-4.27 2.76-9.59 6.2-19.55 6.2-9.66 0-14.95-3.24-19.16-5.96-3.52 9.41-5.44 19.57-5.44 30.19 0 17.05 4.86 36.8 13.68 55.61 10.66 22.72 16.06 46.44 16.06 70.5v60.89c0 14.55-11.13 26.49-25.34 27.18-7.37.35-14.36-2.24-19.7-7.33-5.26-5.01-8.28-12.04-8.28-19.3v-23.38c0-4.93-3.77-9.02-8.4-9.11a8.51 8.51 0 0 0-6.17 2.46 8.49 8.49 0 0 0-2.57 6.12v22.95c0 24.12 19.17 44.2 42.74 44.76 11.89.3 23.13-4.15 31.65-12.47 8.52-8.33 13.22-19.45 13.22-31.33v-72.28c0-4.14 3.36-7.5 7.5-7.5s7.5 3.36 7.5 7.5v171.64c0 7.25-3.02 14.29-8.28 19.3-5.34 5.08-12.34 7.69-19.71 7.32-14.2-.69-25.33-12.63-25.33-27.17v-10.59c0-2.31-.91-4.48-2.56-6.1-1.66-1.63-3.86-2.49-6.18-2.46-4.64.08-8.41 4.17-8.41 9.1v10.6c0 11.88 4.7 23 13.22 31.33 8.52 8.32 19.77 12.73 31.65 12.46 23.56-.56 42.73-20.62 42.75-44.72v-161.37c0-4.14 3.35-7.5 7.5-7.5 4.14 0 7.5 3.36 7.5 7.5v162.3c0 11.88 4.69 23.01 13.22 31.33 8.51 8.32 19.75 12.75 31.64 12.47 23.57-.56 42.75-20.64 42.75-44.76v-10.17c0-2.32-.91-4.49-2.57-6.11-1.65-1.63-3.82-2.48-6.16-2.45-4.65.08-8.42 4.16-8.42 9.1v10.59c0 7.26-3.02 14.29-8.28 19.31-5.34 5.08-12.33 7.68-19.71 7.32-14.2-.69-25.33-12.63-25.33-27.18v-171.09c0-4.14 3.36-7.5 7.5-7.5 4.15 0 7.5 3.36 7.5 7.5v71.32c0 24.12 19.18 44.2 42.75 44.76 11.87.29 23.12-4.15 31.65-12.47 8.52-8.33 13.22-19.45 13.22-31.33zm-53.94-230.58c.41-.27.83-.54 1.26-.81-15.06-25.53-42.85-42.7-74.58-42.7-31.74 0-59.53 17.17-74.59 42.71.42.27.84.54 1.24.8 3.54 2.29 5.88 3.8 11.41 3.8s7.87-1.51 11.42-3.8c4.27-2.77 9.59-6.2 19.55-6.2 9.95 0 15.27 3.44 19.55 6.2 3.54 2.29 5.88 3.8 11.4 3.8 5.53 0 7.87-1.51 11.41-3.8 4.28-2.76 9.6-6.2 19.55-6.2 9.96 0 15.28 3.43 19.55 6.2 3.55 2.29 5.89 3.8 11.42 3.8s7.87-1.51 11.41-3.8z" fill="#4d4d4d"></path><path d="M260.062 118.848c15.48 0 28.08 12.59 28.08 28.07s-12.6 28.07-28.08 28.07c-15.48 0-28.07-12.59-28.07-28.07s12.59-28.07 28.07-28.07zm13.08 28.07c0-7.21-5.87-13.07-13.08-13.07s-13.07 5.86-13.07 13.07 5.86 13.07 13.07 13.07 13.08-5.86 13.08-13.07zM188.912 118.848c15.48 0 28.08 12.59 28.08 28.07s-12.6 28.07-28.08 28.07-28.07-12.59-28.07-28.07 12.59-28.07 28.07-28.07zm13.08 28.07c0-7.21-5.87-13.07-13.08-13.07s-13.07 5.86-13.07 13.07 5.86 13.07 13.07 13.07 13.08-5.86 13.08-13.07z" fill="#4d4d4d"></path></svg></svg>